<svg width="20" height="12" viewBox="0 0 20 12" fill="none" xmlns="http://www.w3.org/2000/svg">
<path d="M9.2196 11.5559L0.31951 2.65567C0.113495 2.44982 -6.91001e-08 2.17502 -5.92231e-08 1.88202C-4.93462e-08 1.58901 0.113495 1.31422 0.31951 1.10837L0.974789 0.452924C1.40178 0.0264239 2.09576 0.026424 2.52209 0.452924L9.99585 7.92668L17.4779 0.444633C17.6839 0.238781 17.9586 0.125123 18.2514 0.125123C18.5446 0.125123 18.8192 0.238781 19.0254 0.444633L19.6805 1.10007C19.8865 1.30609 20 1.58072 20 1.87373C20 2.16673 19.8865 2.44153 19.6805 2.64738L10.7723 11.5559C10.5656 11.7623 10.2897 11.8756 9.99634 11.8749C9.70187 11.8756 9.4261 11.7623 9.2196 11.5559Z" fill="white"/>
</svg>
