<?xml version="1.0" encoding="utf-8"?>
<!-- Generator: Adobe Illustrator 27.0.0, SVG Export Plug-In . SVG Version: 6.00 Build 0)  -->
<svg version="1.1" id="Layer_1" xmlns="http://www.w3.org/2000/svg" xmlns:xlink="http://www.w3.org/1999/xlink" x="0px" y="0px"
	 viewBox="0 0 21 20" style="enable-background:new 0 0 21 20;" xml:space="preserve">
<style type="text/css">
	.st0{clip-path:url(#SVGID_00000028301408889956779480000018240108050955991967_);}
	.st1{fill:#FFFFFF;}
</style>
<g>
	<defs>
		<rect id="SVGID_1_" x="0.1" y="0" width="19.9" height="20"/>
	</defs>
	<clipPath id="SVGID_00000070799415334848391830000007583172749608370307_">
		<use xlink:href="#SVGID_1_"  style="overflow:visible;"/>
	</clipPath>
	<g style="clip-path:url(#SVGID_00000070799415334848391830000007583172749608370307_);">
		<path class="st1" d="M15.7,10.5l-8.5,9.3C7,20,6.8,20.2,6.5,20.2c-0.3,0-0.6-0.1-0.8-0.3L5,19.3c-0.4-0.4-0.5-1.1-0.1-1.5L12,9.9
			L4.2,2.8C4,2.6,3.9,2.3,3.9,2c0-0.3,0.1-0.6,0.3-0.8l0.6-0.7C5,0.3,5.2,0.2,5.5,0.2c0.3,0,0.6,0.1,0.8,0.3L15.6,9
			c0.2,0.2,0.3,0.5,0.4,0.8C16,10,15.9,10.3,15.7,10.5z"/>
	</g>
</g>
</svg>
