<svg width="21" height="20" viewBox="0 0 21 20" fill="none" xmlns="http://www.w3.org/2000/svg">
<g clip-path="url(#clip0_3910_132)">
<path d="M15.6795 10.5226L7.21806 19.8232C7.02237 20.0385 6.75377 20.1645 6.46185 20.1781C6.16994 20.1916 5.89099 20.091 5.67651 19.8947L4.99363 19.2705C4.54925 18.8638 4.51762 18.1707 4.9231 17.7251L12.0284 9.91505L4.23305 2.78805C4.01857 2.5918 3.89282 2.32276 3.87947 2.03028C3.8661 1.73747 3.96682 1.45792 4.16251 1.24248L4.78565 0.557867C4.9815 0.342583 5.24994 0.216532 5.54186 0.202987C5.83377 0.189442 6.11272 0.290095 6.3272 0.48634L15.6087 8.97182C15.8237 9.16869 15.9492 9.43905 15.9619 9.73205C15.976 10.0261 15.8757 10.3068 15.6795 10.5226Z" fill="#076BFF"/>
</g>
<defs>
<clipPath id="clip0_3910_132">
<rect width="19.9396" height="20" fill="white" transform="matrix(1 0 2.22607e-08 -1 0.138916 20)"/>
</clipPath>
</defs>
</svg>
