<?xml version="1.0" encoding="utf-8"?>
<!-- Generator: Adobe Illustrator 27.0.0, SVG Export Plug-In . SVG Version: 6.00 Build 0)  -->
<svg version="1.1" id="Layer_1" xmlns="http://www.w3.org/2000/svg" xmlns:xlink="http://www.w3.org/1999/xlink" x="0px" y="0px"
	 viewBox="0 0 21 20" style="enable-background:new 0 0 21 20;" xml:space="preserve">
<style type="text/css">
	.st0{clip-path:url(#SVGID_00000114784034394118775320000015248756698000063642_);}
	.st1{fill:#FFFFFF;}
</style>
<g>
	<g>
		<defs>
			<rect id="SVGID_1_" x="0.1" y="0.1" width="20" height="19.9"/>
		</defs>
		<clipPath id="SVGID_00000050635711105251780430000002568381594195727241_">
			<use xlink:href="#SVGID_1_"  style="overflow:visible;"/>
		</clipPath>
		<g style="clip-path:url(#SVGID_00000050635711105251780430000002568381594195727241_);">
			<path class="st1" d="M10.6,4.4l9.3,8.5c0.2,0.2,0.4,0.4,0.4,0.7s-0.1,0.6-0.3,0.8l-0.6,0.7c-0.4,0.4-1.1,0.5-1.5,0.1L9.9,8.1
				l-7.1,7.8C2.6,16,2.3,16.1,2,16.1S1.4,16,1.2,15.8l-0.7-0.6c-0.2-0.2-0.3-0.4-0.3-0.7s0.1-0.6,0.3-0.8l8.5-9.3
				c0.2-0.2,0.5-0.3,0.8-0.4C10.1,4.1,10.4,4.2,10.6,4.4z"/>
		</g>
	</g>
</g>
</svg>
